PathFileType	4	(x/y/z)	S04_M20_T12.trc
DataRate	CameraRate	NumFrames	NumMarkers	Units	OrigDataRate	OrigDataStartFrame	OrigNumFrames
240	240	10	51	mm	240	134	535
Frame#	Time	Sternum			R.Acromium			L.Acromium			Top.Head			R.ASIS			L.ASIS			R.PSIS			L.PSIS			R.Great.Tro			L.Great.Tro			R.Iliac.Crest			L.Iliac.Crest			V.Sacral			R.Thigh.Upper.Post			R.Thigh.Lower.Ant			R.Thigh.Lower.Post			R.Thigh.Upper.Ant			R.Knee.Lat			R.Knee.Med			R.Shank.Upper.Post			R.Shank.Lower.Ant			R.Shank.Lower.Post			R.Shank.Upper.Ant			R.Ankle.Lat			R.Ankle.Med			R.Heel.Upper			R.Heel.Med			R.Heel.Lat			R.Toe.Lat			R.Toe.Med			R.Toe.Tip			L.Thigh.Upper.Post			L.Thigh.Lower.Ant			L.Thigh.Lower.Post			L.Thigh.Upper.Ant			L.Knee.Lat			L.Knee.Med			L.Shank.Upper.Post			L.Shank.Lower.Ant			L.Shank.Lower.Post			L.Shank.Upper.Ant			L.Ankle.Lat			L.Ankle.Med			L.Heel.Upper			L.Heel.Med			L.Heel.Lat			L.Toe.Lat			L.Toe.Med			L.Toe.Tip			Cervical.Spine			Back			
		X1	Y1	Z1	X2	Y2	Z2	X3	Y3	Z3	X4	Y4	Z4	X5	Y5	Z5	X6	Y6	Z6	X7	Y7	Z7	X8	Y8	Z8	X9	Y9	Z9	X10	Y10	Z10	X11	Y11	Z11	X12	Y12	Z12	X13	Y13	Z13	X14	Y14	Z14	X15	Y15	Z15	X16	Y16	Z16	X17	Y17	Z17	X18	Y18	Z18	X19	Y19	Z19	X20	Y20	Z20	X21	Y21	Z21	X22	Y22	Z22	X23	Y23	Z23	X24	Y24	Z24	X25	Y25	Z25	X26	Y26	Z26	X27	Y27	Z27	X28	Y28	Z28	X29	Y29	Z29	X30	Y30	Z30	X31	Y31	Z31	X32	Y32	Z32	X33	Y33	Z33	X34	Y34	Z34	X35	Y35	Z35	X36	Y36	Z36	X37	Y37	Z37	X38	Y38	Z38	X39	Y39	Z39	X40	Y40	Z40	X41	Y41	Z41	X42	Y42	Z42	X43	Y43	Z43	X44	Y44	Z44	X45	Y45	Z45	X46	Y46	Z46	X47	Y47	Z47	X48	Y48	Z48	X49	Y49	Z49	X50	Y50	Z50	X51	Y51	Z51	

134	0.55417	-143.89	1273.1	231.43	-253.35	1501.1	416.52	-292.07	1485.2	67.55	-262.48	1825.9	230.28	-146.46	993.94	361.63	-185.04	1006.3	112.98	-372.36	1026.9	298.81	-376.81	1034	219.15	-215.77	915.79	440.91	-317.12	926.9	71.693	-229.64	1081.8	420.62	-289.14	1088.1	83.029	-395.52	988.66	260.54	-117.5	672.17	427.02	-21.387	628.34	377.91	-82.552	590.12	407.2	-55.854	731.29	401.73	-38.452	538.03	393.33	-71.126	524.62	259.99	-91.646	309.34	398.65	-17.521	237.27	359.21	-85.017	239.49	385.71	-26.991	307.21	380.31	-59.774	121.83	370.98	-40.395	138.92	281.37	-118.95	78.807	313.25	-103.75	51.536	283.11	-108.2	46.934	346.66	60.308	66.924	396.61	94.554	78.786	280.99	152.06	108.49	328.75	-357.12	697.44	96.35	-288.18	591.76	97.772	-357.97	608.8	109.24	-292.41	680.75	79.991	-334.09	508.5	115.33	-321.15	499.22	240.41	-450.42	344.49	131.05	-396.02	247.61	133.99	-456.99	267.47	142.06	-389.39	323.45	122.61	-440.05	104.45	162.61	-437.29	116.17	255.86	-522.19	76.207	210.77	-515.61	49.769	243.37	-518.72	48.517	181.67	-335.3	40.089	140.41	-302.86	43.394	257.12	-245.89	50.191	206.48	-323.62	1546.3	251.7	-405.06	1289.2	239.94
135	0.55833	-139.11	1272.3	231.28	-248.15	1500.4	416.62	-287.31	1484.5	67.668	-257.37	1825.2	230.44	-141.43	993.23	361.3	-180.63	1005.6	112.71	-367.51	1026.2	299.02	-372.14	1033.3	219.38	-210.58	915.15	440.8	-312.99	926.45	71.725	-224.23	1081.1	420.49	-285.11	1087.4	83.092	-390.73	987.98	260.79	-112.53	671.49	427.05	-16.383	627.79	377.94	-77.488	589.49	407.24	-50.993	730.7	401.72	-32.882	537.77	393.38	-65.682	523.94	260.06	-81.59	308.09	398.56	-6.0591	237.66	358.97	-73.519	238.43	385.57	-16.955	307.37	380.16	-45.756	121.34	370.62	-26.867	138.96	281.03	-104.29	77.161	312.96	-88.5	50.227	282.81	-92.683	45.483	346.32	75.43	68.959	396.05	109.2	81.574	280.33	166.16	112.42	328.02	-354.02	697.35	96.466	-285.53	591.38	97.825	-355.24	608.71	109.32	-289.38	680.39	80.058	-331.9	508.29	115.32	-318.83	498.93	240.38	-449.06	344.84	131.16	-395.14	247.67	134.05	-455.98	267.84	142.18	-388.15	323.49	122.66	-439.85	104.67	162.77	-437	116.39	255.98	-522.07	76.479	210.97	-515.5	49.992	243.54	-518.64	48.812	181.84	-335.27	40.094	140.47	-302.77	43.297	257.15	-245.79	50.015	206.48	-318.63	1545.6	251.89	-400.3	1288.6	240.21
136	0.5625	-134.32	1271.5	231.14	-242.94	1499.6	416.72	-282.55	1483.8	67.795	-252.24	1824.5	230.61	-136.38	992.51	360.97	-176.2	1004.9	112.44	-362.63	1025.5	299.23	-367.44	1032.6	219.61	-205.36	914.5	440.7	-308.84	925.99	71.758	-218.85	1080.4	420.38	-281.05	1086.8	83.163	-385.91	987.29	261.04	-107.61	670.78	427.12	-11.417	627.19	378	-72.472	588.82	407.31	-46.157	730.06	401.75	-27.37	537.46	393.47	-60.28	523.21	260.16	-71.589	306.89	398.47	5.304	238.14	358.72	-62.087	237.46	385.41	-7	307.57	380.02	-31.835	120.99	370.25	-13.453	139.13	280.68	-89.7	75.677	312.66	-73.338	49.094	282.48	-77.252	44.205	345.95	90.404	71.13	395.45	123.67	84.498	279.65	180.07	116.47	327.27	-350.9	697.27	96.587	-282.88	591	97.876	-352.52	608.63	109.41	-286.35	680.03	80.125	-329.72	508.09	115.32	-316.5	498.64	240.37	-447.71	345.19	131.28	-394.26	247.74	134.11	-454.98	268.22	142.3	-386.9	323.54	122.71	-439.65	104.9	162.93	-436.7	116.63	256.11	-521.93	76.778	211.18	-515.39	50.243	243.72	-518.55	49.132	182.01	-335.25	40.097	140.53	-302.67	43.202	257.17	-245.7	49.837	206.49	-313.62	1544.9	252.09	-395.53	1288	240.48
137	0.56667	-129.51	1270.7	231	-237.71	1498.8	416.83	-277.78	1483	67.932	-247.08	1823.8	230.79	-131.3	991.77	360.65	-171.74	1004.2	112.19	-357.72	1024.8	299.45	-362.71	1032	219.85	-200.13	913.82	440.6	-304.66	925.53	71.793	-213.49	1079.6	420.27	-276.96	1086.2	83.242	-381.07	986.59	261.3	-102.72	670.04	427.2	-6.4853	626.54	378.1	-67.499	588.12	407.42	-41.344	729.38	401.79	-21.913	537.12	393.6	-54.918	522.44	260.31	-61.647	305.74	398.38	16.564	238.68	358.48	-50.726	236.56	385.25	2.8698	307.82	379.88	-18.019	120.77	369.86	-0.1633	139.43	280.31	-75.189	74.354	312.32	-58.276	48.137	282.12	-61.918	43.099	345.55	105.22	73.434	394.82	137.97	87.555	278.93	193.78	120.64	326.48	-347.78	697.19	96.713	-280.23	590.63	97.925	-349.79	608.55	109.5	-283.32	679.68	80.191	-327.54	507.89	115.31	-314.17	498.36	240.35	-446.36	345.56	131.42	-393.39	247.83	134.18	-453.99	268.61	142.44	-385.67	323.6	122.76	-439.43	105.15	163.09	-436.39	116.89	256.24	-521.78	77.106	211.38	-515.27	50.523	243.9	-518.46	49.477	182.19	-335.22	40.1	140.59	-302.57	43.109	257.19	-245.6	49.656	206.49	-308.59	1544.2	252.3	-390.74	1287.4	240.77
138	0.57083	-124.67	1269.9	230.86	-232.46	1498	416.94	-273	1482.3	68.078	-241.91	1823.1	230.97	-126.21	991.02	360.34	-167.25	1003.5	111.94	-352.78	1024.1	299.67	-357.95	1031.3	220.09	-194.89	913.13	440.5	-300.46	925.07	71.831	-208.15	1078.9	420.17	-272.82	1085.5	83.331	-376.2	985.89	261.57	-97.857	669.27	427.31	-1.5834	625.84	378.24	-62.562	587.37	407.56	-36.548	728.66	401.86	-16.506	536.74	393.76	-49.593	521.63	260.48	-51.767	304.65	398.29	27.718	239.3	358.23	-39.441	235.75	385.09	12.652	308.11	379.75	-4.3179	120.68	369.45	12.996	139.84	279.92	-60.765	73.19	311.97	-43.324	47.349	281.73	-46.692	42.162	345.13	119.88	75.863	394.17	152.08	90.735	278.19	207.3	124.9	325.67	-344.66	697.12	96.843	-277.58	590.26	97.972	-347.06	608.48	109.59	-280.29	679.32	80.256	-325.37	507.71	115.32	-311.83	498.09	240.34	-445	345.94	131.56	-392.51	247.94	134.24	-452.99	269.01	142.59	-384.43	323.68	122.81	-439.21	105.4	163.25	-436.07	117.15	256.36	-521.63	77.464	211.59	-515.14	50.835	244.08	-518.36	49.851	182.37	-335.2	40.101	140.65	-302.46	43.019	257.21	-245.5	49.473	206.49	-303.55	1543.5	252.51	-385.92	1286.7	241.06
139	0.575	-119.81	1269.1	230.74	-227.19	1497.1	417.07	-268.22	1481.5	68.235	-236.73	1822.3	231.17	-121.09	990.25	360.03	-162.74	1002.7	111.69	-347.82	1023.4	299.9	-353.17	1030.6	220.34	-189.62	912.43	440.41	-296.23	924.59	71.873	-202.83	1078.1	420.08	-268.64	1084.8	83.428	-371.3	985.18	261.84	-93.019	668.47	427.44	3.2932	625.09	378.4	-57.658	586.6	407.73	-31.766	727.9	401.95	-11.145	536.32	393.96	-44.302	520.78	260.7	-41.951	303.6	398.21	38.76	240	357.98	-28.238	235.02	384.92	22.346	308.44	379.63	9.2615	120.71	369.03	26.016	140.37	279.51	-46.44	72.181	311.59	-28.493	46.728	281.31	-31.584	41.391	344.69	134.36	78.409	393.48	166	94.033	277.42	220.61	129.26	324.84	-341.52	697.06	96.978	-274.94	589.89	98.015	-344.32	608.42	109.69	-277.25	678.97	80.32	-323.2	507.53	115.32	-309.48	497.82	240.33	-443.65	346.33	131.71	-391.63	248.05	134.3	-452	269.42	142.75	-383.2	323.76	122.87	-438.98	105.67	163.42	-435.73	117.42	256.49	-521.46	77.854	211.8	-515	51.181	244.27	-518.26	50.255	182.56	-335.17	40.102	140.71	-302.35	42.93	257.23	-245.4	49.288	206.49	-298.49	1542.7	252.74	-381.08	1286.1	241.37
140	0.57917	-114.93	1268.3	230.61	-221.9	1496.3	417.19	-263.43	1480.7	68.401	-231.52	1821.5	231.38	-115.94	989.47	359.73	-158.21	1002	111.45	-342.84	1022.7	300.13	-348.36	1029.9	220.59	-184.33	911.72	440.32	-291.99	924.12	71.921	-197.52	1077.4	420	-264.4	1084.2	83.535	-366.37	984.46	262.12	-88.197	667.65	427.58	8.1494	624.31	378.6	-52.779	585.79	407.93	-26.993	727.11	402.06	-5.8263	535.87	394.19	-39.044	519.89	260.94	-32.202	302.62	398.12	49.686	240.75	357.73	-17.122	234.37	384.74	31.946	308.81	379.5	22.711	120.86	368.59	38.891	141.01	279.08	-32.224	71.324	311.19	-13.791	46.268	280.87	-16.604	40.78	344.22	148.66	81.066	392.77	179.72	97.437	276.63	233.71	133.7	323.99	-338.38	697	97.119	-272.29	589.52	98.055	-341.59	608.36	109.79	-274.21	678.61	80.383	-321.04	507.35	115.33	-307.13	497.55	240.32	-442.28	346.73	131.87	-390.75	248.19	134.37	-451	269.85	142.91	-381.96	323.86	122.92	-438.74	105.96	163.58	-435.38	117.71	256.61	-521.27	78.277	212.01	-514.86	51.562	244.45	-518.15	50.692	182.75	-335.14	40.103	140.77	-302.24	42.843	257.25	-245.29	49.101	206.5	-293.41	1542	252.97	-376.21	1285.4	241.68
141	0.58333	-110.03	1267.4	230.5	-216.6	1495.5	417.33	-258.63	1479.9	68.577	-226.3	1820.8	231.6	-110.78	988.68	359.43	-153.65	1001.2	111.22	-337.82	1022	300.38	-343.52	1029.2	220.86	-179.03	910.98	440.24	-287.73	923.63	71.975	-192.22	1076.6	419.93	-260.11	1083.5	83.651	-361.41	983.73	262.42	-83.388	666.8	427.75	12.99	623.49	378.81	-47.919	584.95	408.16	-22.223	726.28	402.19	-0.54382	535.38	394.45	-33.814	518.97	261.21	-22.525	301.69	398.04	60.494	241.57	357.48	-6.1001	233.79	384.55	41.453	309.22	379.38	36.021	121.13	368.14	51.615	141.75	278.64	-18.125	70.614	310.76	0.77057	45.963	280.39	-1.7633	40.325	343.74	162.77	83.823	392.03	193.24	100.94	275.82	246.59	138.22	323.12	-335.23	696.94	97.265	-269.64	589.15	98.091	-338.84	608.32	109.9	-271.17	678.26	80.444	-318.87	507.19	115.34	-304.77	497.29	240.32	-440.91	347.14	132.03	-389.86	248.34	134.43	-450	270.3	143.08	-380.72	323.98	122.98	-438.49	106.26	163.75	-435.02	118.01	256.74	-521.08	78.735	212.22	-514.7	51.979	244.64	-518.03	51.162	182.94	-335.12	40.103	140.83	-302.13	42.759	257.27	-245.19	48.912	206.5	-288.32	1541.2	253.2	-371.33	1284.7	242
142	0.5875	-105.1	1266.6	230.39	-211.28	1494.6	417.47	-253.81	1479.2	68.763	-221.07	1820	231.82	-105.59	987.87	359.13	-149.07	1000.4	111	-332.78	1021.2	300.63	-338.66	1028.5	221.13	-173.7	910.24	440.16	-283.44	923.15	72.038	-186.91	1075.8	419.86	-255.77	1082.8	83.775	-356.43	983	262.72	-78.583	665.94	427.94	17.821	622.63	379.04	-43.072	584.09	408.4	-17.451	725.43	402.32	4.7071	534.87	394.74	-28.61	518.02	261.5	-12.921	300.81	397.96	71.178	242.45	357.22	4.823	233.3	384.36	50.863	309.66	379.25	49.185	121.51	367.68	64.18	142.6	278.19	-4.1556	70.045	310.32	15.182	45.805	279.9	12.927	40.019	343.23	176.69	86.669	391.27	206.54	104.53	275	259.25	142.8	322.23	-332.07	696.9	97.417	-267	588.79	98.123	-336.09	608.27	110.01	-268.12	677.91	80.504	-316.7	507.03	115.35	-302.39	497.04	240.32	-439.52	347.57	132.2	-388.96	248.51	134.49	-448.98	270.75	143.25	-379.47	324.1	123.05	-438.23	106.58	163.91	-434.65	118.33	256.86	-520.87	79.229	212.42	-514.54	52.435	244.82	-517.91	51.667	183.12	-335.08	40.105	140.89	-302.01	42.678	257.28	-245.08	48.72	206.5	-283.21	1540.5	253.45	-366.41	1284	242.32
143	0.59167	-100.14	1265.7	230.3	-205.94	1493.7	417.61	-248.99	1478.4	68.958	-215.81	1819.2	232.06	-100.38	987.04	358.85	-144.46	999.67	110.78	-327.71	1020.5	300.89	-333.76	1027.8	221.41	-168.36	909.48	440.1	-279.13	922.65	72.11	-181.6	1075	419.81	-251.37	1082.1	83.907	-351.42	982.27	263.03	-73.778	665.06	428.14	22.647	621.75	379.28	-38.23	583.21	408.67	-12.673	724.55	402.47	9.9319	534.33	395.04	-23.428	517.04	261.81	-3.3958	299.99	397.88	81.734	243.38	356.97	15.641	232.87	384.15	60.174	310.14	379.13	62.194	121.99	367.2	76.582	143.53	277.73	9.6741	69.613	309.86	29.431	45.789	279.38	27.456	39.855	342.71	190.4	89.594	390.49	219.63	108.19	274.16	271.67	147.43	321.34	-328.9	696.85	97.575	-264.34	588.43	98.151	-333.34	608.24	110.13	-265.06	677.56	80.563	-314.51	506.87	115.36	-300.01	496.78	240.32	-438.13	348.01	132.37	-388.05	248.69	134.56	-447.96	271.23	143.41	-378.2	324.23	123.11	-437.96	106.91	164.07	-434.26	118.66	256.98	-520.65	79.759	212.61	-514.37	52.928	245	-517.77	52.208	183.31	-335.05	40.106	140.94	-301.89	42.599	257.3	-244.97	48.527	206.49	-278.08	1539.7	253.7	-361.47	1283.3	242.65
